<svg xmlns="http://www.w3.org/2000/svg" viewBox="0 0 518.61 609.03"><defs><style>.cls-1{fill:#05386b;}.cls-2{fill:#1463a9;}.cls-3{fill:#05386b;}</style></defs><title>Asset 6</title><g id="Layer_2" data-name="Layer 2"><g id="Layer_1-2" data-name="Layer 1"><path class="cls-1" d="M330.19,205.36C324.87,212.8,320,220.55,313.42,227c-5.85,5.76-12,11.13-19.07,15.26-3,1.73-4.5,3.72-4,7.16a8.34,8.34,0,0,1,0,3c-.74,3,2.08,7-2.19,8.84s-10.15-.16-13.25-3.74a19.12,19.12,0,0,0-14.89-7c-12.83-.06-25.67-.15-38.5,0-11.7.16-19.17,7.9-19.31,19.65-.05,3.83-.11,7.67,0,11.5.38,10.14,7.73,17.6,17.9,17.76,13.5.21,27,.07,40.49,0,6.28,0,11.2-2.7,15-7.68,2.47-3.27,9.22-5,12.91-3.34.56.25,1.4.77,1.42,1.21.32,5.4,4.27,4.46,7.65,4.47,15.17,0,30.33.08,45.5,0,11.33,0,22.11,2.61,32.63,6.56,1.49.55,3.79.77,3.92,2.58s-2.26,2.14-3.66,2.84c-30.64,15.46-50.4,39.72-59,73a87.88,87.88,0,0,0-2.8,21.74c0,7.44-.13,7.45-7.35,7.45h-258c-6.6,0-6.36,0-6.68-6.67-1.24-25.62,5.07-49,21.21-69.13,19.4-24.17,44.56-37.63,75.91-38.28,15.32-.32,30.66-.27,46,0,4.9.08,6.25-1.61,6.15-6.33-.28-13-.13-26-.08-39,0-2.45-.33-4.38-2.78-5.85a102.89,102.89,0,0,1-35.78-36.27,9.66,9.66,0,0,0-1.33-1.47c-4.11-9.23-8.24-18.42-10.28-28.42-3.35-16.45-1.7-33.06-1.94-49.62-.12-8.54,1.77-16.73,4.08-24.86,5.46-15.19,12.92-29.27,24.47-40.72C190.67,39,218.13,28.23,250.53,31.3c26.91,2.56,49.09,14.43,67,34.56,9.58,10.76,15.71,23.39,20.82,36.64a87.68,87.68,0,0,1,4.06,24.86c0,14.92,1,29.84-1.07,44.72C339.75,183.9,335.06,194.65,330.19,205.36Z"/><path class="cls-2" d="M143.31,102.46c-2.31,8.13-4.2,16.32-4.08,24.86.24,16.56-1.41,33.17,1.94,49.62,2,10,6.17,19.19,10.28,28.42-3.79,3.84-8.59,4.8-13.73,4.79-11,0-22-.44-33,.09-18.28.89-30.61-9.77-33-27.19-2.46-18.31-2.41-36.89,1.7-55.14a42.87,42.87,0,0,1,4-10.19C82.77,107.47,90.71,101.53,103,102c10.69.42,10.71.07,12.89-10.1A114.84,114.84,0,0,1,207.18,3.53c35.18-6.51,69.76-5,101.81,13,31.86,17.88,52.06,44.42,57.37,81.23.44,3.11,2,4.37,4.92,4.35,2.67,0,5.34.17,8,0,10.3-.71,17.43,4.36,22.9,12.44,5,7.36,7.25,15.75,8,24.39a232.15,232.15,0,0,1,.21,40.93C409,196,398.25,211.23,377.67,210.22c-9.07-.45-8.94,0-11.42,9-4.67,17-11.33,33.05-24,45.86-10.89,11-24.1,17-39.61,17.49-8.32.27-16.66.2-25,.11A7.11,7.11,0,0,0,271,286c-4.52,6.39-11,9.42-18.85,9.43-7.17,0-14.34.06-21.5,0-12-.13-21.66-8.53-22.3-19.28-.63-10.37,7.54-19.63,19.32-21a127.31,127.31,0,0,1,28.41.07,20.55,20.55,0,0,1,15.25,9.34c.93,1.37,1.67,3,3.67,3,11,0,22,1.11,32.92-.74,12.32-2.1,21.4-9.45,28.47-19.49,7.19-10.22,11.25-21.77,14.47-33.71,1-3.75-1.3-3.41-3.49-3.35-6.26.19-12.38,0-17.17-4.94,4.87-10.71,9.56-21.46,11.18-33.28,2-14.88,1.08-29.8,1.07-44.72a87.68,87.68,0,0,0-4.06-24.86c4.76.25,5.38-2.07,4.49-6.26-6.91-32.42-26.71-54-56.62-66.65-22.46-9.5-46.11-9.85-69.67-6-40.23,6.6-71.16,36.61-77.74,73.14C138.09,100.91,138.88,102.84,143.31,102.46Z"/><path class="cls-2" d="M518.61,405c.15,52.48-42.58,95.33-95.12,95.4s-95.12-42.5-95.27-95.22,42.36-95.53,94.86-95.65A95.26,95.26,0,0,1,518.61,405Zm-48.35,48.46a30.92,30.92,0,0,0,7.42-.76c2.23-.52,3.7-1.55,4-3.82.26-2.11-1-3.36-2.79-4.28-3.24-1.68-6.5-3.35-9.68-5.15-3.49-2-3.8-5.12-1.11-9.78,2.58-4.49,5.47-5.61,9-3.47q4.27,2.56,8.48,5.25c1.89,1.2,3.74,2.34,5.89.58s1.75-3.94.94-6.32c-4.11-12-12.65-18.34-25.58-18a15.7,15.7,0,0,1-12.77-5.19c-10.15-10.56-20.58-20.86-31-31.12a18.09,18.09,0,0,1-6-13.14c-.25-8.3-2.5-15.83-11.34-19.34a32,32,0,0,0-19.56-1.47c-2,.47-3.36,1.43-3.77,3.46s.72,3.49,2.45,4.44c3.06,1.68,6.15,3.29,9.22,5,4,2.19,4.63,5.61,1.83,10.35-2.65,4.48-5.6,5.39-9.59,2.95-2.41-1.48-4.8-3-7.2-4.48-2.13-1.33-4.33-3-6.75-.85-2.25,2-1.31,4.59-.49,7,3.95,11.33,12.44,17.53,24.59,17.13,5.85-.19,10,1.68,14,5.88,9.76,10.25,19.8,20.23,30,30a21,21,0,0,1,6.68,14.43C448.31,447.32,455.36,453.46,470.26,453.42Zm-91.75,11.26c2.63.12,5.18-1.24,7.39-3.48q6.5-6.58,13.08-13.08a13.56,13.56,0,0,0,3.9-6.29c.56-2.27,1.58-2.85,3.87-3.43,4.73-1.2,7.71-5.12,9.92-9.18,1.89-3.46-1.92-4.86-3.69-6.76-1.49-1.6-1.56-2.56,0-4,2.72-2.46,5.16-5.23,7.91-7.65,2.27-2,2.86-3.4.3-5.89-2.4-2.34-3.81-2.34-5.86.13-1.81,2.17-4.18,3.88-5.93,6.08-2.61,3.3-4.88,4-7.61.17-2.85-4-5.92-3.59-9-.12-1.44,1.62-3.93,2.85-4.4,4.67-1.37,5.25-6,6.55-9.48,9.47-5.71,4.82-10.76,10.43-16,15.78a9.22,9.22,0,0,0-2.4,6.41C360.37,454.93,370.38,464.78,378.51,464.68ZM471.93,346a6.74,6.74,0,0,0-2.06.66c-4.78,3.88-9.54,7.76-14.21,11.76-1,.87-1.64,2.34-.54,3.57,1.82,2,.38,3.15-.93,4.45-4.37,4.33-8.57,8.84-13.11,13-2.66,2.43-.68,3.53.75,5.07s2.84,3.06,5.12.56c4-4.4,8.4-8.53,12.66-12.73.9-.89,1.92-2.74,3.16-1.93,4.67,3.07,6.16-1.05,8.3-3.44,2.34-2.59,4.46-5.37,6.58-8.14,1.25-1.63,3.75-3.18,2.1-5.53C477.7,350.32,475.33,347.47,471.93,346Z"/><path class="cls-2" d="M418,379.2a20.31,20.31,0,0,1,2.3,1.77q12.92,12.86,25.76,25.76c1,1,2.79,2.11,1,3.62-1.31,1.13-2.41-.32-3.33-1.23Q430.84,396.25,418,383.34c-.91-.91-2.15-1.78-1.42-3.35C416.73,379.64,417.36,379.52,418,379.2Z"/><path class="cls-2" d="M394.84,438.61a14.69,14.69,0,0,1-1.55,2.26c-4.41,4.48-8.87,8.91-13.32,13.36-1.21,1.21-2.67,2.55-4.23,1s-.26-3,1-4.23q6.68-6.66,13.33-13.34c1-1,2-1.72,3.51-1.26C394.52,436.71,394.58,437.57,394.84,438.61Z"/><path class="cls-2" d="M389.21,433.15a17.49,17.49,0,0,1-1.56,2.07q-6.63,6.7-13.33,13.31c-1.12,1.1-2.33,2.8-4.15,1.1s-.36-3,.8-4.15c4.54-4.58,9.11-9.12,13.67-13.68,1-1,2-1.84,3.46-1A2.2,2.2,0,0,1,389.21,433.15Z"/><path class="cls-3" d="M0,515.44H44.55v13.18H29.26v79.09h-14V528.62H0Z"/><path class="cls-3" d="M55.36,515.44H95v13.18H69.33v25.71H89.77v13.18H69.33v27H95v13.18H55.36Z"/><path class="cls-3" d="M105.59,587.15V536c0-12.92,8.83-21.88,21.88-21.88s21.88,9,21.88,21.88v10.81H135.64V536c0-5.4-3.29-8.7-8-8.7s-8,3.3-8,8.7v51.15c0,5.4,3.29,8.7,8,8.7s8-3.3,8-8.7V574h13.71v13.18c0,12.92-8.83,21.88-21.88,21.88S105.59,600.07,105.59,587.15Z"/><path class="cls-3" d="M162.14,607.71V515.44h14v38.89h16.61V515.44h14v92.27h-14v-40.2H176.11v40.2Z"/><path class="cls-3" d="M222,515.44h15.43l17.79,61.95V515.44h13.71v92.27H254.15l-18.46-59.05v59.05H222Z"/><path class="cls-3" d="M284.2,515.44h14v92.27h-14Z"/><path class="cls-3" d="M312.28,587.15V536c0-12.92,8.83-21.88,21.88-21.88S356,523.08,356,536v10.81H342.33V536c0-5.4-3.29-8.7-8-8.7s-8,3.3-8,8.7v51.15c0,5.4,3.29,8.7,8,8.7s8-3.3,8-8.7V574H356v13.18c0,12.92-8.83,21.88-21.88,21.88S312.28,600.07,312.28,587.15Z"/><path class="cls-3" d="M368.83,515.44h14v92.27h-14Z"/><path class="cls-3" d="M425.64,587.28h-15l-3,20.43h-14l15.29-92.27h18.72l15.29,92.27H428.67Zm-1.85-13.45-5.66-38.62-5.67,38.62Z"/><path class="cls-3" d="M453.72,515.44h15.42l17.8,61.95V515.44h13.71v92.27H485.88l-18.45-59.05v59.05H453.72Z"/></g></g></svg>