<svg xmlns="http://www.w3.org/2000/svg" viewBox="0 0 452.14 621.24"><defs><style>.cls-1{fill:#05386b;}.cls-2{fill:#05386b;}.cls-3{fill:#05386b;}</style></defs><title>Asset 7</title><g id="Layer_2" data-name="Layer 2"><g id="Layer_1-2" data-name="Layer 1"><path class="cls-1" d="M227.51,433.88c-40.33,0-72.8.06-105.26,0-16.54,0-33.06-.65-49.3-4.15-9.29-2-18.15-5.14-26-10.68-11.41-8-17.68-19.35-20.1-32.78A118.33,118.33,0,0,1,37,312.39c19.55-40.55,51.91-64.73,96.2-72.9,2.29-.43,4.63-.55,6.95-.86,1.11-.15,1.86.11,2.09,1.32,1.57,8.47,6.9,14.83,12.2,21.1,12.94,15.36,28.09,28.43,43.49,41.2,6.46,5.36,13.13,10.47,19.66,15.74,1.3,1,2.32,1.45,3.85.27,19-14.72,37.48-29.94,54.31-47.09,6.31-6.43,12.35-13.12,17.1-20.83,1.92-3.11,3.65-6.31,4.16-10,.22-1.62,1.12-1.83,2.56-1.68a118.47,118.47,0,0,1,40.07,11.1c39.56,19.21,63.94,50.4,72.58,93.54,3.22,16.09,3.45,32.34-1,48.35-4.76,17.17-15.94,28.35-32.47,34.46-11.31,4.19-23.1,6-35.05,6.71C302.4,435.19,261,433.13,227.51,433.88Z"/><path class="cls-2" d="M327,107.75c-.16,22-5.58,42.79-13.91,62.94-9,21.72-21,41.56-37.6,58.34-9.85,9.94-21,18.14-34.25,22.93-19.67,7.07-38.35,4.28-56.05-6.25-17.11-10.19-30-24.66-40.82-41.1a196.27,196.27,0,0,1-30.57-78.76C105.23,70.36,137.22,22,185.1,6.15,223.38-6.51,258.69.45,289.65,26.4,310.63,44,322.43,66.94,326.2,94A81.71,81.71,0,0,1,327,107.75Zm-15.81,14.62a46.93,46.93,0,0,0-1.31-11.21,56,56,0,0,0-2.49-8.19c-4.74-12.33-14.65-18.13-27.16-16-23.63,4-47.37,6-71.32,3.52-10.2-1.06-20.2-3-29.66-7.16S161.93,73.42,157.29,64c-1.88-3.83-1.92-3.88-4.85-.64C141,76,133.92,91,130,107.53c-1.61,6.79-3.2,13.53-1.86,20.73a177.91,177.91,0,0,0,24.34,62.53c9.27,14.81,20.34,28,35.27,37.55,17.41,11.09,35.69,13.49,54.87,4.93,11.1-5,20.33-12.47,28.42-21.41,17.23-19,28.68-41.27,36-65.73C309.25,138.69,311.57,131.2,311.14,122.37Z"/><path class="cls-3" d="M0,599.36V548.21c0-12.92,8.83-21.88,21.88-21.88s21.88,9,21.88,21.88V559H30.06V548.21c0-5.4-3.3-8.7-8-8.7s-8,3.3-8,8.7v51.15c0,5.4,3.3,8.7,8,8.7s8-3.3,8-8.7V586.18h13.7v13.18c0,12.92-8.83,21.88-21.88,21.88S0,612.28,0,599.36Z"/><path class="cls-3" d="M56,599.62v-72H70v72c0,5.41,3.29,8.44,7.77,8.44s7.78-3,7.78-8.44v-72H99.26v72c0,12.92-8.7,21.62-21.49,21.62S56,612.54,56,599.62Z"/><path class="cls-3" d="M110.86,598.57v-3.3l13.45-1.45v3.43c0,6.72,3.42,10.81,9,10.81s9-3.43,9-8.83c0-5.8-2.37-10-12.78-19.91-13.84-13.05-17.8-20.17-17.8-30.32,0-13.71,7.91-22.67,21.22-22.67s21.23,9,21.23,22.8v2.38L140.65,553v-2.64c0-7.12-2.77-10.81-7.64-10.81s-7.65,3-7.65,8.83,2.9,10,12.79,19.91c13.44,13.44,17.79,20.17,17.79,30.32,0,13.18-9.23,22.67-22.54,22.67S110.86,611.75,110.86,598.57Z"/><path class="cls-3" d="M162.93,527.65h44.55v13.18H192.19v79.09h-14V540.83H162.93Z"/><path class="cls-3" d="M217.11,599V548.61c0-13.32,9-22.28,22.41-22.28s22.4,9,22.4,22.28V599c0,13.32-9,22.28-22.4,22.28S217.11,612.28,217.11,599ZM248,599V548.61c0-5.8-3.29-9.1-8.43-9.1s-8.44,3.3-8.44,9.1V599c0,5.8,3.29,9.1,8.44,9.1S248,604.76,248,599Z"/><path class="cls-3" d="M339.57,527.65v92.27h-14V556.65l-13,63.27h-9.75l-13.05-63.27v63.27H276V527.65H295.8l12.13,58.92,11.6-58.92Z"/><path class="cls-3" d="M354.86,527.65h39.67v13.18h-25.7v25.7h20.43v13.19H368.83v27h25.7v13.18H354.86Z"/><path class="cls-3" d="M437.64,619.92l-10.15-38.09h-7.25v38.09h-14V527.65h21.88c13.31,0,21.88,8.7,21.88,22v10.15c0,8.57-3.56,15.16-9.62,18.85l11.73,41.26Zm-17.4-51.28h7.25c5.4,0,8.57-3.16,8.57-8.56V549.4c0-5.41-3.17-8.57-8.57-8.57h-7.25Z"/></g></g></svg>